<svg xmlns="http://www.w3.org/2000/svg" viewBox="0 0 500 500"><g id="freepik--background-complete--inject-47"><rect x="397.91" y="163.24" width="47.74" height="47.74" transform="translate(608.88 -234.67) rotate(90)" style="fill:#dbdbdb"></rect><rect x="405.31" y="170.64" width="32.93" height="32.93" transform="translate(608.88 -234.67) rotate(90)" style="fill:#fff"></rect><polygon points="405.31 170.64 438.24 170.64 438.24 203.57 405.31 170.64" style="fill:#ebebeb"></polygon><rect x="339.21" y="163.24" width="47.74" height="47.74" transform="translate(550.18 -175.97) rotate(90)" style="fill:#dbdbdb"></rect><rect x="346.61" y="170.64" width="32.93" height="32.93" transform="translate(550.18 -175.97) rotate(90)" style="fill:#fff"></rect><polygon points="356.28 170.64 379.54 170.64 379.54 193.9 356.28 170.64" style="fill:#ebebeb"></polygon><rect x="361.43" y="200.18" width="62.39" height="106.83" transform="translate(646.22 -139.03) rotate(90)" style="fill:#dbdbdb"></rect><rect x="369.14" y="207.98" width="46.96" height="91.23" transform="translate(646.22 -139.03) rotate(90)" style="fill:#fff"></rect><polygon points="378.44 230.12 438.24 230.12 438.24 260.9 378.44 230.12" style="fill:#ebebeb"></polygon><rect x="339.21" y="45.27" width="106.83" height="106.83" transform="translate(491.31 -293.93) rotate(90)" style="fill:#dbdbdb"></rect><rect x="347" y="53.07" width="91.24" height="91.23" style="fill:#fff"></rect><path d="M438.25,118.75c-13.87-13.78-53.18-52.89-65.8-65.68h65.8Z" style="fill:#ebebeb"></path><path d="M242.51,291.69H66.78V46.29H242.51ZM72,286.48h165.3v-235H72Z" style="fill:#ebebeb"></path><rect x="152.04" y="52.87" width="5.21" height="236.21" style="fill:#ebebeb"></rect><rect x="62.05" y="56.83" width="185.18" height="7.26" style="fill:#ebebeb"></rect><rect x="62.05" y="65" width="185.18" height="7.26" style="fill:#ebebeb"></rect><rect x="62.05" y="73.17" width="185.18" height="7.26" style="fill:#ebebeb"></rect><rect x="62.05" y="81.34" width="185.18" height="7.26" style="fill:#ebebeb"></rect><rect x="62.05" y="89.51" width="185.18" height="7.26" style="fill:#ebebeb"></rect><rect x="62.05" y="97.68" width="185.18" height="7.26" style="fill:#ebebeb"></rect><rect x="62.05" y="105.84" width="185.18" height="7.26" style="fill:#ebebeb"></rect><rect x="62.05" y="114.01" width="185.18" height="7.26" style="fill:#ebebeb"></rect><rect x="62.05" y="122.18" width="185.18" height="7.26" style="fill:#ebebeb"></rect><rect x="230.45" y="55.36" width="1.3" height="141.29" style="fill:#dbdbdb"></rect><polygon points="233.41 202.72 228.79 202.72 229.95 196.07 232.25 196.07 233.41 202.72" style="fill:#dbdbdb"></polygon><rect x="235.14" y="55.36" width="1.3" height="176.93" style="fill:#dbdbdb"></rect><polygon points="238.11 237.18 233.48 237.18 234.64 230.53 236.95 230.53 238.11 237.18" style="fill:#dbdbdb"></polygon><rect x="53.96" y="45.27" width="201.37" height="15.19" style="fill:#dbdbdb"></rect></g><g id="freepik--Character--inject-47"><path d="M231.8,258.68a1.06,1.06,0,0,1-1,1l-4.34-.17c-2.79-10.45-6.1-18.87-5.34-15.64a51.83,51.83,0,0,1,1.09,15.45l-8.54-.48c-1.48-18-4.38-31.6-4.54-27.52-.65,16.43-2.17,21.57-3.9,27-20.61-1.22-47.61-3.1-67.1-4.89-1.21-10-2-20.79-2.47-20.09-3.24,5.25-4.81,13.18-5.52,19.34C124,252.13,119,251.52,116,251c0,0-.57-8.37-.49-11.1a56.67,56.67,0,0,1,4.35-20.35c2.78-6.63,7-12.31,11-18.15a.45.45,0,0,1,.1-.13s0,0,0-.05a58.49,58.49,0,0,0,6.53-12.2.39.39,0,0,0,0-.09,56.56,56.56,0,0,0,2.64-9.62c2.18-12,10.09-21.7,21.77-23.69,21.25-13.89,44.12-7.16,49,9,.46,1.58.88,3.37,1.27,5.32V170c1.46,7.2,2.46,16.46,3.54,23.65a0,0,0,0,0,0,0s0,0,0,.08v0a66.27,66.27,0,0,0,1.69,8.35C221.59,215.3,233.2,223.75,231.8,258.68Z" style="fill:#263238"></path><path d="M156.72,158.44c-7.85,3.09-13,8.28-15.1,17-1.22,5.06-2.09,10-4.58,14.67-2.56,4.79-6.22,8.55-10,12.3-6,6-10.31,12.06-12,20.61s-2.44,19.1-.34,27.6a0,0,0,1,0,.07,0c-1.52-8.56-.37-20.06,2-28.61,2.63-9.39,8.68-14.83,15-21.51A40.21,40.21,0,0,0,142,181.81c1-4.29,1.43-8.83,3.61-12.75,2.61-4.67,7.11-7.35,11.54-9.68A.52.52,0,0,0,156.72,158.44Z" style="fill:#263238"></path><path d="M228.55,217c-4.52-7.39-9.37-13.8-11.55-22.61-2-8-2.72-16.38-4.76-24.4a.1.1,0,1,0-.19,0c2.94,14.18,2.33,28.11,10,40.58,4.15,6.78,8.35,13.09,10.73,20.94a67.47,67.47,0,0,1,2.36,25.34.21.21,0,1,0,.42,0A55.75,55.75,0,0,0,228.55,217Z" style="fill:#263238"></path><path d="M174.85,262.26c14.79,12.68,63.94,45.27,91,44.46,14.92-.45,67.71-34.36,77.51-43.17,6.8-6.1-36.76-40.14-44-34.85-23.3,17-39.15,31.5-43.69,31.5-5.87,0-40.44-7.32-75.74-14.34C166.57,243.21,165.3,254.07,174.85,262.26Z" style="fill:#c95f50"></path><path d="M341.7,264.72c11.4-7.57,33.9-31,37.75-38.88s13.3-31.43,7.55-35-9.06,3.1-9.06,3.1,2.41-10.57-3.7-13.63-10.93,7.48-10.93,7.48,1.69-11-4.62-13.65-9.39,8.79-9.39,8.79,2-10-4.09-10c-7.36,0-9,18.92-13.89,27.32-1.12,1.91-25.35,37-25.35,37Z" style="fill:#c95f50"></path><path d="M349.58,182c-1.23,13.88-4.17,19.74-12.48,30.65-.17.22.11.51.3.3,9.12-9.94,13.87-16.76,12.86-30.93C350.21,181.3,349.64,181.31,349.58,182Z" style="fill:#263238"></path><path d="M363.39,186.69c-2.54,14.31-5.67,20.7-13.54,32.77-.11.17.16.37.29.21,8.71-11.19,13.3-18.11,13.95-32.74C364.12,186.27,363.51,186,363.39,186.69Z" style="fill:#263238"></path><path d="M377.52,194.55c-3.46,13.67-6.59,20.82-15.74,31.56a.26.26,0,0,0,.38.36c10.39-10,14.37-18.93,15.76-31.77C378,193.82,377.74,193.69,377.52,194.55Z" style="fill:#263238"></path><path d="M300.45,237.16s-7.06-24.23-2.93-31.33,29.3-27.88,34.1-22.7c6.19,6.69-6,21.55-12.87,28.05,0,0,14.34,15.45,7.92,28S300.45,237.16,300.45,237.16Z" style="fill:#c95f50"></path><path d="M332.72,185.53c1.25,10.17-8.37,18.11-14.6,24.92a.85.85,0,0,0,.25,1.37c5.57,6.88,12,15.25,9.38,24.23a.22.22,0,0,0,.4.16c4.09-9.26-1.66-18.6-7.89-25.05,6.5-6.88,15.79-15.27,12.56-25.65A.05.05,0,0,0,332.72,185.53Z" style="fill:#263238"></path><path d="M293.34,229.73,344.2,277s-62.34,34.84-85,31.92-52-19.59-78.19-37.8c-15.55-10.81-24.45-31.53,4.58-26.21,29.22,5.34,64.75,9.86,68.74,9.27S293.34,229.73,293.34,229.73Z" style="fill:#B0BEC5"></path><path d="M181.92,269.32a1.09,1.09,0,1,1-1.09,1.09A1.09,1.09,0,0,1,181.92,269.32Zm-1.09-17a1.09,1.09,0,1,0,1.09-1.09A1.09,1.09,0,0,0,180.83,252.28Zm-10.67,8.16.47.67A1,1,0,0,0,170.16,260.44Zm36.19,27h0c.32.2.64.39,1,.57A1.07,1.07,0,0,0,206.35,287.45Zm-1.09-17a1.09,1.09,0,1,0,1.09-1.09A1.09,1.09,0,0,0,205.26,270.41Zm0-18.13a1.09,1.09,0,1,0,1.09-1.09A1.09,1.09,0,0,0,205.26,252.28ZM194,278.39a1.09,1.09,0,0,0-1,.78l1.75,1.12h0a1.07,1.07,0,0,0,.37-.81A1.09,1.09,0,0,0,194,278.39Zm-1.09-17a1.09,1.09,0,1,0,1.09-1.09A1.09,1.09,0,0,0,192.91,261.35Zm36.78,27.19a1.09,1.09,0,1,0,1.09-1.09A1.09,1.09,0,0,0,229.69,288.54Zm0-18.13a1.09,1.09,0,1,0,1.09-1.09A1.09,1.09,0,0,0,229.69,270.41Zm2.16-18.31-2-.27a1,1,0,0,0-.11.45,1.09,1.09,0,1,0,2.16-.18Zm-14.51,27.38a1.09,1.09,0,1,0,1.09-1.09A1.09,1.09,0,0,0,217.34,279.48Zm0-18.13a1.09,1.09,0,1,0,1.09-1.09A1.09,1.09,0,0,0,217.34,261.35Zm36.78,45.32a1.09,1.09,0,1,0,1.09-1.08A1.09,1.09,0,0,0,254.12,306.67Zm0-18.13a1.09,1.09,0,1,0,1.09-1.09A1.09,1.09,0,0,0,254.12,288.54Zm0-18.13a1.09,1.09,0,1,0,1.09-1.09A1.09,1.09,0,0,0,254.12,270.41Zm-12.35,27.2a1.09,1.09,0,1,0,1.09-1.09A1.09,1.09,0,0,0,241.77,297.61Zm0-18.13a1.09,1.09,0,1,0,1.09-1.09A1.09,1.09,0,0,0,241.77,279.48Zm0-18.13a1.09,1.09,0,1,0,1.09-1.09A1.09,1.09,0,0,0,241.77,261.35Zm37.87,44.24a1.08,1.08,0,0,0-1,.62l1.55-.46A1.08,1.08,0,0,0,279.64,305.59Zm-1.09-17a1.09,1.09,0,1,0,1.09-1.09A1.09,1.09,0,0,0,278.55,288.54Zm0-18.13a1.09,1.09,0,1,0,1.09-1.09A1.09,1.09,0,0,0,278.55,270.41Zm0-18.13a1.09,1.09,0,1,0,1.09-1.09A1.09,1.09,0,0,0,278.55,252.28ZM266.2,297.61a1.09,1.09,0,1,0,1.09-1.09A1.09,1.09,0,0,0,266.2,297.61Zm0-18.13a1.09,1.09,0,1,0,1.09-1.09A1.09,1.09,0,0,0,266.2,279.48Zm0-18.13a1.09,1.09,0,1,0,1.09-1.09A1.09,1.09,0,0,0,266.2,261.35ZM303,288.54a1.09,1.09,0,1,0,1.09-1.09A1.09,1.09,0,0,0,303,288.54Zm0-18.13a1.09,1.09,0,1,0,1.09-1.09A1.09,1.09,0,0,0,303,270.41Zm0-18.13a1.09,1.09,0,1,0,1.09-1.09A1.09,1.09,0,0,0,303,252.28Zm-12.35,45.33a1.09,1.09,0,1,0,1.09-1.09A1.09,1.09,0,0,0,290.63,297.61Zm0-18.13a1.09,1.09,0,1,0,1.09-1.09A1.09,1.09,0,0,0,290.63,279.48Zm0-18.13a1.09,1.09,0,1,0,1.09-1.09A1.09,1.09,0,0,0,290.63,261.35Zm0-18.13a1.09,1.09,0,1,0,1.09-1.09A1.09,1.09,0,0,0,290.63,243.22Zm36.78,27.19a1.09,1.09,0,1,0,1.09-1.09A1.09,1.09,0,0,0,327.41,270.41Zm-12.35,9.07a1.09,1.09,0,1,0,1.09-1.09A1.09,1.09,0,0,0,315.06,279.48Zm0-18.13a1.09,1.09,0,1,0,1.09-1.09A1.09,1.09,0,0,0,315.06,261.35Zm25.52,17a1.09,1.09,0,0,0-1.09,1.09.34.34,0,0,0,0,.1l1.75-.95A1.06,1.06,0,0,0,340.58,278.39Z" style="fill:#fff"></path><path d="M327.47,281.28c-2.46-3-5.53-5.6-8.27-8.34s-5.76-5.56-8.68-8.3c-5.69-5.32-11.56-10.47-17.43-15.61-3.42-3-6.95-5.85-10.4-8.8-.13-.1-.31.09-.19.2,5.65,5.56,11.23,11.16,17,16.6s11.42,10.62,17.31,15.74c1.68,1.46,3.42,2.86,5.12,4.31a64.27,64.27,0,0,0,5.33,4.41C327.41,281.59,327.58,281.41,327.47,281.28Z" style="fill:#263238"></path><path d="M298.38,299.18c-15.06,6.17-30.21,10.91-39.16,9.76-22.64-2.91-52-19.59-78.19-37.8a43.16,43.16,0,0,1-11.27-11.3C198.5,268.78,265.19,289.09,298.38,299.18Z" style="fill:#263238"></path><path d="M215.27,342.24l6.53,50.38H93.37c3.66-59.39,38.12-124.35,53.31-142.86,7.61-9.27,22.61-11.25,34-3.69,2.7,1.78,34.14,48.3,36.8,55.05C227.34,326.06,215.27,342.24,215.27,342.24Z" style="fill:#B0BEC5"></path><path d="M108.63,378.11a1.09,1.09,0,1,1-1.09,1.09A1.09,1.09,0,0,1,108.63,378.11Zm-1.09-17a1.09,1.09,0,1,0,1.09-1.09A1.09,1.09,0,0,0,107.54,361.07Zm0-18.13a1.09,1.09,0,1,0,1.09-1.09A1.09,1.09,0,0,0,107.54,342.94Zm1.17-19.21-.69,2a1.15,1.15,0,0,0,.61.18,1.08,1.08,0,0,0,.08-2.16ZM95.19,388.26a1.09,1.09,0,1,0,1.09-1.09A1.09,1.09,0,0,0,95.19,388.26ZM96.3,369c-.13.7-.26,1.4-.37,2.11a.84.84,0,0,0,.35.07,1.09,1.09,0,0,0,0-2.18ZM132,379.2a1.09,1.09,0,1,0,1.09-1.09A1.09,1.09,0,0,0,132,379.2Zm0-18.13a1.09,1.09,0,1,0,1.09-1.09A1.09,1.09,0,0,0,132,361.07Zm0-18.13a1.09,1.09,0,1,0,1.09-1.09A1.09,1.09,0,0,0,132,342.94Zm0-18.13a1.09,1.09,0,1,0,1.09-1.09A1.08,1.08,0,0,0,132,324.81Zm0-18.14a1.09,1.09,0,1,0,1.09-1.08A1.09,1.09,0,0,0,132,306.67Zm0-18.13a1.09,1.09,0,1,0,1.09-1.09A1.09,1.09,0,0,0,132,288.54Zm1.66-19.05c-.36.61-.72,1.24-1.08,1.87a1,1,0,0,0,.51.14,1.09,1.09,0,0,0,1.09-1.09A1.08,1.08,0,0,0,133.63,269.49Zm-14,118.77a1.09,1.09,0,1,0,1.09-1.09A1.09,1.09,0,0,0,119.62,388.26Zm0-18.13a1.09,1.09,0,1,0,1.09-1.09A1.09,1.09,0,0,0,119.62,370.13Zm0-18.13a1.09,1.09,0,1,0,1.09-1.09A1.09,1.09,0,0,0,119.62,352Zm0-18.13a1.09,1.09,0,1,0,1.09-1.09A1.09,1.09,0,0,0,119.62,333.87Zm0-18.13a1.09,1.09,0,1,0,1.09-1.09A1.09,1.09,0,0,0,119.62,315.74Zm0-18.13a1.09,1.09,0,1,0,1.09-1.09A1.09,1.09,0,0,0,119.62,297.61ZM156.4,379.2a1.09,1.09,0,1,0,1.09-1.09A1.09,1.09,0,0,0,156.4,379.2Zm0-18.13a1.09,1.09,0,1,0,1.09-1.09A1.09,1.09,0,0,0,156.4,361.07Zm0-18.13a1.09,1.09,0,1,0,1.09-1.09A1.09,1.09,0,0,0,156.4,342.94Zm0-18.13a1.09,1.09,0,1,0,1.09-1.09A1.08,1.08,0,0,0,156.4,324.81Zm0-18.14a1.09,1.09,0,1,0,1.09-1.08A1.09,1.09,0,0,0,156.4,306.67Zm0-18.13a1.09,1.09,0,1,0,1.09-1.09A1.09,1.09,0,0,0,156.4,288.54Zm0-18.13a1.09,1.09,0,1,0,1.09-1.09A1.09,1.09,0,0,0,156.4,270.41Zm0-18.13a1.09,1.09,0,1,0,1.09-1.09A1.09,1.09,0,0,0,156.4,252.28Zm-12.35,136a1.09,1.09,0,1,0,1.09-1.09A1.09,1.09,0,0,0,144.05,388.26Zm0-18.13a1.09,1.09,0,1,0,1.09-1.09A1.09,1.09,0,0,0,144.05,370.13Zm0-18.13a1.09,1.09,0,1,0,1.09-1.09A1.09,1.09,0,0,0,144.05,352Zm0-18.13a1.09,1.09,0,1,0,1.09-1.09A1.09,1.09,0,0,0,144.05,333.87Zm0-18.13a1.09,1.09,0,1,0,1.09-1.09A1.09,1.09,0,0,0,144.05,315.74Zm0-18.13a1.09,1.09,0,1,0,1.09-1.09A1.09,1.09,0,0,0,144.05,297.61Zm0-18.13a1.09,1.09,0,1,0,1.09-1.09A1.09,1.09,0,0,0,144.05,279.48Zm0-18.13a1.09,1.09,0,1,0,1.09-1.09A1.09,1.09,0,0,0,144.05,261.35ZM180.83,379.2a1.09,1.09,0,1,0,1.09-1.09A1.09,1.09,0,0,0,180.83,379.2Zm0-18.13a1.09,1.09,0,1,0,1.09-1.09A1.09,1.09,0,0,0,180.83,361.07Zm0-18.13a1.09,1.09,0,1,0,1.09-1.09A1.09,1.09,0,0,0,180.83,342.94Zm0-18.13a1.09,1.09,0,1,0,1.09-1.09A1.08,1.08,0,0,0,180.83,324.81Zm0-18.14a1.09,1.09,0,1,0,1.09-1.08A1.09,1.09,0,0,0,180.83,306.67Zm0-18.13a1.09,1.09,0,1,0,1.09-1.09A1.09,1.09,0,0,0,180.83,288.54Zm0-18.13a1.09,1.09,0,1,0,1.09-1.09A1.09,1.09,0,0,0,180.83,270.41Zm0-18.13a1.09,1.09,0,1,0,1.09-1.09A1.09,1.09,0,0,0,180.83,252.28Zm-12.35,136a1.09,1.09,0,1,0,1.09-1.09A1.09,1.09,0,0,0,168.48,388.26Zm0-18.13a1.09,1.09,0,1,0,1.09-1.09A1.09,1.09,0,0,0,168.48,370.13Zm0-18.13a1.09,1.09,0,1,0,1.09-1.09A1.09,1.09,0,0,0,168.48,352Zm0-18.13a1.09,1.09,0,1,0,1.09-1.09A1.09,1.09,0,0,0,168.48,333.87Zm0-18.13a1.09,1.09,0,1,0,1.09-1.09A1.09,1.09,0,0,0,168.48,315.74Zm0-18.13a1.09,1.09,0,1,0,1.09-1.09A1.09,1.09,0,0,0,168.48,297.61Zm0-18.13a1.09,1.09,0,1,0,1.09-1.09A1.09,1.09,0,0,0,168.48,279.48Zm0-18.13a1.09,1.09,0,1,0,1.09-1.09A1.09,1.09,0,0,0,168.48,261.35Zm0-18.13a1.09,1.09,0,1,0,1.09-1.09A1.09,1.09,0,0,0,168.48,243.22Zm36.78,136a1.09,1.09,0,1,0,1.09-1.09A1.09,1.09,0,0,0,205.26,379.2Zm0-18.13a1.09,1.09,0,1,0,1.09-1.09A1.09,1.09,0,0,0,205.26,361.07Zm0-18.13a1.09,1.09,0,1,0,1.09-1.09A1.09,1.09,0,0,0,205.26,342.94Zm0-18.13a1.09,1.09,0,1,0,1.09-1.09A1.08,1.08,0,0,0,205.26,324.81Zm0-18.14a1.09,1.09,0,1,0,1.09-1.08A1.09,1.09,0,0,0,205.26,306.67Zm0-18.13a1.09,1.09,0,1,0,1.09-1.09A1.09,1.09,0,0,0,205.26,288.54Zm-12.35,99.72a1.09,1.09,0,1,0,1.09-1.09A1.09,1.09,0,0,0,192.91,388.26Zm0-18.13A1.09,1.09,0,1,0,194,369,1.09,1.09,0,0,0,192.91,370.13Zm0-18.13a1.09,1.09,0,1,0,1.09-1.09A1.09,1.09,0,0,0,192.91,352Zm0-18.13a1.09,1.09,0,1,0,1.09-1.09A1.09,1.09,0,0,0,192.91,333.87Zm0-18.13a1.09,1.09,0,1,0,1.09-1.09A1.09,1.09,0,0,0,192.91,315.74Zm0-18.13a1.09,1.09,0,1,0,1.09-1.09A1.09,1.09,0,0,0,192.91,297.61Zm0-18.13a1.09,1.09,0,1,0,1.09-1.09A1.09,1.09,0,0,0,192.91,279.48Zm24.43,108.78a1.09,1.09,0,1,0,1.09-1.09A1.09,1.09,0,0,0,217.34,388.26Zm1.41-19.16h0a1.13,1.13,0,0,0-.32,0,1.09,1.09,0,1,0,0,2.18,1,1,0,0,0,.57-.17Zm-.32-36.32a1.09,1.09,0,0,0,0,2.18,1,1,0,0,0,.5-.13c.16-.45.32-.93.48-1.42A1.09,1.09,0,0,0,218.43,332.78Zm-1.09-17a1.09,1.09,0,1,0,1.09-1.09A1.09,1.09,0,0,0,217.34,315.74Z" style="fill:#fff"></path><path d="M137.09,255.74c-24.63,20.75-88.31,103-73.43,121.21s110.87,7.66,138.6-1.68c8.25-2.78-15.54-55-24.58-57.23-7.52-1.87-48.7,11.29-49.56,8.91-1-2.69,7.48-20.68,20.95-53.46C164.6,235.7,148,246.58,137.09,255.74Z" style="fill:#c95f50"></path><path d="M260.19,306.9c.22,7.63-5.69,8.56-5.69,8.56a14.08,14.08,0,0,1,5.9,7.55c1.55,5.59-6.54,10.46-6.54,10.46a17.39,17.39,0,0,1,5,8.95c.94,5.5-6.52,11.58-6.52,11.58a15.24,15.24,0,0,1-.59,10.62c-4.28,8.79-19.31,9.31-28.56,11.47-9.9,2.32-25.07.63-32.47,2.17L173.3,318.47s29.53-22.75,46.62-23.84C229.4,294,259.9,297.44,260.19,306.9Z" style="fill:#c95f50"></path><path d="M254.34,315.25c-10-2.67-20.69-2.94-31-3.08a.18.18,0,0,0,0,.35c10.23,0,20.7,2.79,30.91,3.22A.25.25,0,0,0,254.34,315.25Z" style="fill:#263238"></path><path d="M253.57,332.71a27.05,27.05,0,0,0-7.08-.24c-2.5.09-5,.23-7.51.4-5,.35-10,.81-15,1.41-.23,0-.24.37,0,.36,5-.34,10-.6,15-.72,2.51-.07,5-.11,7.52-.13a31.52,31.52,0,0,0,7.07-.4A.35.35,0,0,0,253.57,332.71Z" style="fill:#263238"></path><path d="M252.09,354c-2-.54-4.37-.05-6.38.13q-3.42.32-6.84.58c-4.57.36-9.13.72-13.7.92-.23,0-.23.36,0,.35,4.64-.18,9.29-.29,13.94-.51q3.42-.17,6.84-.37c1.94-.11,4.38,0,6.17-.87A.13.13,0,0,0,252.09,354Z" style="fill:#263238"></path><path d="M165.77,319.2l22.32,66.47S68,397.86,60.39,376.3,107.73,280.55,131,259.82c26.94-24,28.87-14.53,20.78,8.67-8.47,24.29-23.37,59.09-23.37,59.09Z" style="fill:#B0BEC5"></path><path d="M84.2,378.11a1.09,1.09,0,1,1-1.09,1.09A1.09,1.09,0,0,1,84.2,378.11Zm-1.09-17A1.09,1.09,0,1,0,84.2,360,1.09,1.09,0,0,0,83.11,361.07Zm0-18.13a1.09,1.09,0,1,0,1.09-1.09A1.09,1.09,0,0,0,83.11,342.94Zm0-18.13a1.09,1.09,0,1,0,1.09-1.09A1.08,1.08,0,0,0,83.11,324.81ZM70.76,370.13A1.09,1.09,0,1,0,71.85,369,1.09,1.09,0,0,0,70.76,370.13Zm0-18.13a1.09,1.09,0,1,0,1.09-1.09A1.09,1.09,0,0,0,70.76,352Zm36.78,27.2a1.09,1.09,0,1,0,1.09-1.09A1.09,1.09,0,0,0,107.54,379.2Zm0-18.13a1.09,1.09,0,1,0,1.09-1.09A1.09,1.09,0,0,0,107.54,361.07Zm0-18.13a1.09,1.09,0,1,0,1.09-1.09A1.09,1.09,0,0,0,107.54,342.94Zm0-18.13a1.09,1.09,0,1,0,1.09-1.09A1.08,1.08,0,0,0,107.54,324.81Zm0-18.14a1.09,1.09,0,1,0,1.09-1.08A1.09,1.09,0,0,0,107.54,306.67Zm0-18.13a1.09,1.09,0,1,0,1.09-1.09A1.09,1.09,0,0,0,107.54,288.54ZM96.28,387.17a1.08,1.08,0,0,0-1.08,1l2.16.17a.28.28,0,0,0,0-.09A1.09,1.09,0,0,0,96.28,387.17Zm-1.09-17A1.09,1.09,0,1,0,96.28,369,1.09,1.09,0,0,0,95.19,370.13Zm0-18.13a1.09,1.09,0,1,0,1.09-1.09A1.09,1.09,0,0,0,95.19,352Zm0-18.13a1.09,1.09,0,1,0,1.09-1.09A1.09,1.09,0,0,0,95.19,333.87Zm0-18.13a1.09,1.09,0,1,0,1.09-1.09A1.09,1.09,0,0,0,95.19,315.74ZM132,379.2a1.09,1.09,0,1,0,1.09-1.09A1.09,1.09,0,0,0,132,379.2Zm0-18.13a1.09,1.09,0,1,0,1.09-1.09A1.09,1.09,0,0,0,132,361.07Zm0-18.13a1.09,1.09,0,1,0,1.09-1.09A1.09,1.09,0,0,0,132,342.94Zm0-36.27a1.09,1.09,0,1,0,1.09-1.08A1.09,1.09,0,0,0,132,306.67Zm0-18.13a1.09,1.09,0,1,0,1.09-1.09A1.09,1.09,0,0,0,132,288.54Zm0-18.13a1.09,1.09,0,1,0,1.09-1.09A1.09,1.09,0,0,0,132,270.41ZM120.71,387.17a1.09,1.09,0,0,0-1.09,1.09,1.06,1.06,0,0,0,.4.83h1.38a1.09,1.09,0,0,0-.69-1.93Zm-1.09-17a1.09,1.09,0,1,0,1.09-1.09A1.09,1.09,0,0,0,119.62,370.13Zm0-18.13a1.09,1.09,0,1,0,1.09-1.09A1.09,1.09,0,0,0,119.62,352Zm0-18.13a1.09,1.09,0,1,0,1.09-1.09A1.09,1.09,0,0,0,119.62,333.87Zm0-18.13a1.09,1.09,0,1,0,1.09-1.09A1.09,1.09,0,0,0,119.62,315.74Zm0-18.13a1.09,1.09,0,1,0,1.09-1.09A1.09,1.09,0,0,0,119.62,297.61Zm0-18.13a1.09,1.09,0,1,0,1.09-1.09A1.09,1.09,0,0,0,119.62,279.48ZM156.4,379.2a1.09,1.09,0,1,0,1.09-1.09A1.09,1.09,0,0,0,156.4,379.2Zm0-18.13a1.09,1.09,0,1,0,1.09-1.09A1.09,1.09,0,0,0,156.4,361.07Zm0-18.13a1.09,1.09,0,1,0,1.09-1.09A1.09,1.09,0,0,0,156.4,342.94Zm0-18.13a1.09,1.09,0,1,0,1.09-1.09A1.08,1.08,0,0,0,156.4,324.81Zm-11.26,62.36a1.09,1.09,0,0,0-1.09,1.09.86.86,0,0,0,.07.36l2.07-.08a.86.86,0,0,0,0-.28A1.09,1.09,0,0,0,145.14,387.17Zm-1.09-17a1.09,1.09,0,1,0,1.09-1.09A1.09,1.09,0,0,0,144.05,370.13Zm0-18.13a1.09,1.09,0,1,0,1.09-1.09A1.09,1.09,0,0,0,144.05,352Zm0-18.13a1.09,1.09,0,1,0,1.09-1.09A1.09,1.09,0,0,0,144.05,333.87Zm0-54.39a1.09,1.09,0,1,0,1.09-1.09A1.09,1.09,0,0,0,144.05,279.48Zm0-18.13a1.09,1.09,0,1,0,1.09-1.09A1.09,1.09,0,0,0,144.05,261.35ZM180.83,379.2a1.09,1.09,0,1,0,1.09-1.09A1.09,1.09,0,0,0,180.83,379.2Zm-11.26,8a.88.88,0,0,0-.33.06l.55,0Zm-1.09-17a1.09,1.09,0,1,0,1.09-1.09A1.09,1.09,0,0,0,168.48,370.13Zm0-18.13a1.09,1.09,0,1,0,1.09-1.09A1.09,1.09,0,0,0,168.48,352Zm2.05-18.62s0,0,0,0a1.08,1.08,0,0,0-1-.59,1.09,1.09,0,1,0,1.09,1.09.76.76,0,0,0,0-.15h0Z" style="fill:#fff"></path><path d="M90.85,340.05a136.17,136.17,0,0,1,18.25-8,132.59,132.59,0,0,1,19-5.1c3.67-.74,7.37-1.31,11.07-1.89a.09.09,0,1,1,0,.17A171.25,171.25,0,0,0,120,330.2q-9.39,2.9-18.68,6.14c-3.5,1.22-6.94,2.61-10.4,4C90.79,340.36,90.7,340.13,90.85,340.05Z" style="fill:#263238"></path><path d="M165.48,319c-.61.08-33.85,6.79-35,7.15.19-.46,8-16.77,9.13-19.16.12-.24.22-.48.33-.72.72-1,1.44-2.07,2.12-3.14l2.58-4.12s0-.09-.07-.05q-1.38,2-2.75,4c-.42.62-.82,1.25-1.21,1.88.77-1.69,1.52-3.38,2.28-5.09,1.2-2.72,2.31-5.47,3.41-8.23,0-.09-.1-.14-.14-.05-2.29,4.75-4.73,9.43-7,14.18s-11.08,22.2-11,22.19,36.7-8.19,37.42-8.39A.23.23,0,0,0,165.48,319Z" style="fill:#263238"></path><path d="M162.7,360.25c-2.45-7.41-4.83-14.85-7.56-22.17-1.54-4.16-3.07-8.33-4.65-12.48-.06-.16-.34-.08-.29.09,2.16,7.54,4.34,15.09,6.85,22.53S162,363,164.56,370.41c1.47,4.19,3.07,8.32,4.79,12.42,0,.08.18,0,.15-.05C167.59,375.17,165.16,367.72,162.7,360.25Z" style="fill:#263238"></path><path d="M186,379.4c.78,2.06,1.57,4.12,2.33,6.19l.1.27-.3.05c-9.53,1.47-19.14,2.39-28.77,3s-19.27.89-28.92.85-19.3-.46-28.92-1.29a273.21,273.21,0,0,1-28.65-3.93c2.4.23,4.79.47,7.19.74l3.58.38,3.6.26,7.19.58,7.2.42c9.6.49,19.2.81,28.81.79s19.23-.14,28.83-.55,19.21-1,28.8-1.77l-.2.31C187.22,383.63,186.6,381.51,186,379.4Z" style="fill:#263238"></path><path d="M179,245.11s1.61,15.72-3.12,17.21c-8.8,2.76-21.89-11.43-22.55-13.74-.16-.6.63-15.37,1.28-26.86.41-7.39.77-13.41.77-13.41l27.29,15.48-3.42,19.9Z" style="fill:#c95f50"></path><path d="M182.66,223.79l-3.42,19.9a40.52,40.52,0,0,1-24.64-22c.41-7.39.77-13.41.77-13.41l3.44,1.8Z" style="fill:#263238"></path><path d="M211.93,200.06c-3.55,35.26-25.07,37.11-32.67,36.34-6.9-.71-30.3-4-30.42-39.41s17.4-44.92,33.27-44.15S215.48,164.81,211.93,200.06Z" style="fill:#c95f50"></path><path d="M205,192.5a24.33,24.33,0,0,1-2.4.5,4,4,0,0,1-2.54,0,1.26,1.26,0,0,1-.62-1.4,3.11,3.11,0,0,1,2.53-1.91,4.57,4.57,0,0,1,3.29.32A1.35,1.35,0,0,1,205,192.5Z" style="fill:#263238"></path><path d="M180.27,195.25a24.24,24.24,0,0,0,2.32.77,4,4,0,0,0,2.52.35,1.28,1.28,0,0,0,.78-1.33,3.14,3.14,0,0,0-2.29-2.19,4.56,4.56,0,0,0-3.31-.06A1.35,1.35,0,0,0,180.27,195.25Z" style="fill:#263238"></path><path d="M184.85,199.49c0-.09-.2.1-.2.2-.14,2.41-.71,5.14-3,5.75-.07,0-.08.14,0,.13C184.39,205.44,185.11,201.8,184.85,199.49Z" style="fill:#263238"></path><path d="M182.93,196.79c-3.84-.64-4.84,7.08-1.28,7.68S186.15,197.33,182.93,196.79Z" style="fill:#263238"></path><path d="M181.36,197c-.73.35-1.49,1-2.31,1s-1.56-.93-2.08-1.78c-.05-.09-.13,0-.14.07-.21,1.48.16,3.07,1.72,3.49s2.63-.78,3.19-2.22C181.84,197.3,181.66,196.86,181.36,197Z" style="fill:#263238"></path><path d="M199.11,200.26c0-.09.18.13.16.23-.4,2.38-.47,5.17,1.59,6.27.06,0,0,.15,0,.13C198.23,206.15,198.35,202.45,199.11,200.26Z" style="fill:#263238"></path><path d="M201.59,198.05c3.88.24,3.13,8-.47,7.77S198.33,197.86,201.59,198.05Z" style="fill:#263238"></path><path d="M203.16,198.72c.57.47,1.1,1.28,1.83,1.39s1.55-.63,2.17-1.39c.07-.07.12,0,.11.1-.1,1.49-.74,3-2.19,3.13s-2.16-1.23-2.36-2.74C202.68,198.93,202.93,198.53,203.16,198.72Z" style="fill:#263238"></path><path d="M178.89,220.46c.47.65.91,1.52,1.76,1.74a6.15,6.15,0,0,0,2.66-.15.08.08,0,0,1,.08.14,3.23,3.23,0,0,1-3.24.76,2.53,2.53,0,0,1-1.5-2.42C178.63,220.38,178.82,220.36,178.89,220.46Z" style="fill:#263238"></path><path d="M184.42,216.05c4.18-.8,6.63-.12,9.09.26.28,0,.9-.22,1-.48h0c0-.09,0-5.07,0-5.07.66.35,4,2,4,1-.26-7.89-.55-16.66-2.47-24.45a.22.22,0,0,0-.43,0c-.05,7.59,1.23,15.14,1.3,22.77a14.28,14.28,0,0,0-3.77-1.26c-.26.07.29,5.36.18,6.17a13.51,13.51,0,0,0-9.11.56C183,216.06,182.89,216.35,184.42,216.05Z" style="fill:#263238"></path><path d="M189.51,220.07c1.39-.32,3.45-4.94,1.06-5.39s-7.88.49-9.83,3.39c-1.7,2.55,5.26,1,6.4,1.51C188.1,220,188.5,220.31,189.51,220.07Z" style="fill:#263238"></path><path d="M187.15,219.58c.22.1.38.18.55.24,0-1.54-1.34-3.45-4.64-3.74a6.37,6.37,0,0,0-2.32,2C179.05,220.61,186,219.11,187.15,219.58Z" style="fill:#ff9abb"></path><path d="M191.63,216.76a69.25,69.25,0,0,0-8.59-.65,13,13,0,0,1,7.54-1.43C191.56,214.86,191.79,215.75,191.63,216.76Z" style="fill:#fff"></path><path d="M147.49,201.94A15,15,0,0,0,158,191.46a39,39,0,0,0,18-9.73c-.37.69-3.09,5.7-4.55,8.2,23.48,0,33.71-16.11,33.71-16.11,6,8.7,6.6,13.67,7.23,16.21,0,0,2.74-13.89-2.69-24.53-6.65-13-19-13.08-19-13.08a39.47,39.47,0,0,0-33.51,7C139.45,172.72,147.49,201.94,147.49,201.94Z" style="fill:#263238"></path><path d="M189.36,189.36a42.56,42.56,0,0,1-12.43,2.13s0-.05,0-.06a36,36,0,0,0,18.52-7,34,34,0,0,0,6.16-5.94,23.77,23.77,0,0,0,4.62-8.09.18.18,0,0,1,.34.09,27.77,27.77,0,0,1-3.45,8.61,25.15,25.15,0,0,1-6.43,6.58,29.1,29.1,0,0,1-7.33,3.67" style="fill:#263238"></path><path d="M154.17,200.27s-5.54-12.31-11-10.53-2.71,18.61,2.67,21.86a6,6,0,0,0,8.49-1.67Z" style="fill:#c95f50"></path><path d="M144.09,194.55c-.09,0-.13.1-.06.14,3.75,2.42,5.17,6.58,5.93,10.77-.92-1.73-2.41-2.86-4.69-1.81-.12.06-.05.24.07.24a3.67,3.67,0,0,1,3.74,2,17.2,17.2,0,0,1,1.3,3.58c.12.4.82.33.76-.11,0,0,0-.07,0-.1C152.2,204.12,149.55,196.12,144.09,194.55Z" style="fill:#263238"></path><path d="M149.42,210.68a1.24,1.24,0,1,1-2.42-.52,1.24,1.24,0,0,1,2.42.52Z" style="fill:#fff"></path><path d="M146.48,207.85a.8.8,0,0,1-.94.6.78.78,0,0,1-.59-.93.77.77,0,0,1,.93-.6A.78.78,0,0,1,146.48,207.85Z" style="fill:#fff"></path><path d="M142.28,196.71l-2.48.07a.48.48,0,0,1-.5-.48h0a.48.48,0,0,1,.48-.5l2.48-.07a.48.48,0,0,1,.5.48h0A.48.48,0,0,1,142.28,196.71Z" style="fill:#B0BEC5"></path><path d="M142.29,195.12l-2.46-.28a.5.5,0,0,1-.43-.55h0a.5.5,0,0,1,.55-.44l2.46.29a.49.49,0,0,1,.43.55h0A.49.49,0,0,1,142.29,195.12Z" style="fill:#B0BEC5"></path><path d="M164.24,154.89c-1.16,2.69-16.61,4.54-23.41-5.9-6.7-10.27,2.17-22.92,14.46-16.89C163.06,135.91,166.69,149.19,164.24,154.89Z" style="fill:#263238"></path><path d="M140.62,134.87a17.18,17.18,0,0,1,10-5.33,10.33,10.33,0,0,1,9.72,3.54c2.46,2.77,3.73,6.49,4.41,10.25a31.92,31.92,0,0,1,.42,5.79,15.84,15.84,0,0,1-.93,5.77,14,14,0,0,0,2-5.68,26.36,26.36,0,0,0,.2-6.09A20.17,20.17,0,0,0,162,131.65a11.53,11.53,0,0,0-11.69-3.78A15.15,15.15,0,0,0,140.62,134.87Z" style="fill:#263238"></path><path d="M164.19,176.64a3.83,3.83,0,0,1,.17,1.73,3.17,3.17,0,0,1-2.35,2.54,3.2,3.2,0,0,1-1.74-.09,7.42,7.42,0,0,0,1.55-.46,3.88,3.88,0,0,0,1.19-.88,3.68,3.68,0,0,0,.79-1.26C164,177.76,164,177.2,164.19,176.64Z" style="fill:#fff"></path><path d="M169.73,180.69a3.83,3.83,0,0,1-1.76.16,3.08,3.08,0,0,1-1.64-.84,3.19,3.19,0,0,1-.91-1.6,3.62,3.62,0,0,1,.13-1.77,9.66,9.66,0,0,0,.43,1.59,3.91,3.91,0,0,0,.87,1.24,3.86,3.86,0,0,0,1.27.82A14.57,14.57,0,0,0,169.73,180.69Z" style="fill:#fff"></path><path d="M165.81,186.3a3.8,3.8,0,0,1-.17-1.72,3.07,3.07,0,0,1,.8-1.62,3,3,0,0,1,3.29-.83,7.42,7.42,0,0,0-1.55.46,3.73,3.73,0,0,0-1.2.88,3.62,3.62,0,0,0-.78,1.26C166,185.19,166,185.74,165.81,186.3Z" style="fill:#fff"></path><path d="M160.27,182.26a4,4,0,0,1,1.76-.17,3.16,3.16,0,0,1,1.64.84,3.34,3.34,0,0,1,.91,1.61,3.59,3.59,0,0,1-.13,1.76,9.66,9.66,0,0,0-.43-1.59,3.91,3.91,0,0,0-.87-1.24,3.68,3.68,0,0,0-1.27-.81A12.62,12.62,0,0,0,160.27,182.26Z" style="fill:#fff"></path></g><g id="freepik--Shadows--inject-47"><ellipse cx="242.65" cy="459.9" rx="43.35" ry="7.95" style="fill:#ebebeb"></ellipse><ellipse cx="105.28" cy="426.06" rx="62.48" ry="11.27" style="fill:#ebebeb"></ellipse></g><g id="freepik--Desk--inject-47"><polygon points="30.76 392.76 85.57 392.52 140.38 392.43 250 392.27 359.62 392.43 414.43 392.52 469.24 392.76 414.43 393.01 359.62 393.1 250 393.26 140.38 393.1 85.57 393.01 30.76 392.76" style="fill:#263238"></polygon></g><g id="freepik--Lines--inject-47"><path d="M215.09,156.61c1.76-1.7,3.59-3.31,5.44-4.9s3.72-3.15,5.6-4.7,3.8-3,5.75-4.51l2.93-2.19c1-.7,2-1.43,3-2.11-.88.85-1.79,1.66-2.69,2.49l-2.75,2.41c-1.84,1.6-3.72,3.15-5.61,4.69s-3.8,3.05-5.75,4.51S217.11,155.23,215.09,156.61Z" style="fill:#263238"></path><path d="M128.73,160.87c-2.06-.43-4.09-1-6.11-1.53s-4-1.16-6-1.78-4-1.29-5.95-2l-3-1.08c-1-.39-2-.75-2.92-1.18,1,.21,2,.48,3.07.72l3,.81c2,.55,4,1.17,6,1.79s4,1.28,6,2S126.79,160.05,128.73,160.87Z" style="fill:#263238"></path><path d="M215.74,162.45c3-1.36,6.12-2.61,9.2-3.85s6.18-2.42,9.29-3.6,6.23-2.3,9.37-3.38l4.71-1.62c1.58-.5,3.16-1,4.75-1.51-1.51.69-3.05,1.31-4.58,2l-4.61,1.88c-3.08,1.25-6.19,2.42-9.29,3.6s-6.23,2.3-9.37,3.38S218.93,161.48,215.74,162.45Z" style="fill:#263238"></path><path d="M93.54,171c3.29-.48,6.59-.85,9.89-1.2s6.61-.64,9.92-.92,6.62-.52,9.94-.7l5-.26c1.66-.05,3.32-.14,5-.16-1.65.25-3.3.43-4.95.65l-5,.54c-3.3.36-6.61.64-9.92.92s-6.62.52-9.93.7S96.86,171,93.54,171Z" style="fill:#263238"></path><path d="M219.46,166.19c3.71-.42,7.42-.55,11.13-.6a109.34,109.34,0,0,1,11.15.4,124.36,124.36,0,0,1-22.28.2Z" style="fill:#263238"></path><path d="M210.72,154.82a106.37,106.37,0,0,1,3.91-10.44,108,108,0,0,1,4.83-10.06c-1.1,3.57-2.47,7-3.91,10.45S212.53,151.56,210.72,154.82Z" style="fill:#263238"></path><path d="M109.21,177.65c3.52-1.26,7.1-2.23,10.71-3.13a109,109,0,0,1,10.94-2.16,109,109,0,0,1-10.7,3.13A109.78,109.78,0,0,1,109.21,177.65Z" style="fill:#263238"></path></g><g id="freepik--Device--inject-47"><rect x="221.25" y="391.3" width="138.62" height="6.22" style="fill:#c7c7c7"></rect><rect x="290.1" y="391.3" width="69.77" height="6.22" style="fill:#a6a6a6"></rect><polygon points="297.61 397.51 432.7 397.51 450.37 305.76 315.27 305.76 297.61 397.51" style="fill:#c7c7c7"></polygon><path d="M365.76,351.63a7.43,7.43,0,0,0,7.51,8.23,9.15,9.15,0,0,0,8.94-8.23,7.41,7.41,0,0,0-7.5-8.22A9.16,9.16,0,0,0,365.76,351.63Z" style="fill:#a6a6a6"></path></g><g id="freepik--Sheets--inject-47"><rect x="55.6" y="357.71" width="68.75" height="66.06" style="fill:#dbdbdb"></rect><rect x="124.35" y="357.71" width="26.13" height="66.06" style="fill:#c7c7c7"></rect><polygon points="55.6 390.74 124.35 390.74 70.66 392.44 55.6 390.74" style="fill:#c7c7c7"></polygon><polygon points="124.35 415.79 55.6 415.79 109.29 417.49 124.35 415.79" style="fill:#c7c7c7"></polygon><polygon points="55.6 372.27 99.15 372.27 60.44 373.66 55.6 372.27" style="fill:#c7c7c7"></polygon><polygon points="124.35 406.06 80.8 406.06 119.51 407.45 124.35 406.06" style="fill:#c7c7c7"></polygon><polygon points="72.09 364.92 121.21 364.92 113.02 365.75 72.09 364.92" style="fill:#c7c7c7"></polygon><polygon points="62.28 397.82 111.4 397.82 103.21 398.65 62.28 397.82" style="fill:#c7c7c7"></polygon><polygon points="92.49 378.56 124.35 378.56 130.04 380.79 92.49 378.56" style="fill:#dbdbdb"></polygon><polygon points="46.82 378.56 78.68 378.56 84.38 380.79 46.82 378.56" style="fill:#dbdbdb"></polygon><polygon points="87.7 408.26 55.84 408.26 50.15 410.48 87.7 408.26" style="fill:#dbdbdb"></polygon><polygon points="124.35 400.72 149.93 400.72 155.63 402.94 124.35 400.72" style="fill:#c7c7c7"></polygon><polygon points="133.28 390.74 153.12 390.74 150.47 388.92 133.28 390.74" style="fill:#c7c7c7"></polygon></g><g id="freepik--Mug--inject-47"><rect x="231.53" y="456.46" width="23.94" height="3.74" style="fill:#455a64"></rect><rect x="231.53" y="456.46" width="23.94" height="2.46" style="fill:#263238"></rect><path d="M203.12,446.42a13.57,13.57,0,0,0,13.48,5.76,13.77,13.77,0,0,0,2.43-.7,17,17,0,0,0,3.38-1.78l-3-4.5a11.4,11.4,0,0,1-1.79,1c-5.7,2.59-9.31-1.91-10-2.93-3.28-4.61-4.46-15.14-1.13-19.2.22-.3,1.18-.77,5,.05.71.16,1.52.34,2.43.59a9.52,9.52,0,0,0,2.19.47l.1-2.7.26-2.71a11.16,11.16,0,0,1-1.14-.3,35.44,35.44,0,0,0-5.44-1.12c-2.84-.3-5.81,0-7.64,2.28C196.82,427.26,199,440.64,203.12,446.42Z" style="fill:#455a64"></path><path d="M219.37,445.2a11.4,11.4,0,0,1-1.79,1l1.45,5.27a17,17,0,0,0,3.38-1.78Z" style="fill:#263238"></path><path d="M209.86,418.36l1.6,5.77c.71.16,1.52.34,2.43.59a9.52,9.52,0,0,0,2.19.47l.1-2.7.26-2.71a11.16,11.16,0,0,1-1.14-.3A35.44,35.44,0,0,0,209.86,418.36Z" style="fill:#263238"></path><path d="M275.34,411.3s-2.87,24.39-7.83,34.67-11.88,11.41-16.18,11.41H235.68c-4.3,0-11.22-1.15-16.19-11.41s-7.83-34.67-7.83-34.67Z" style="fill:#455a64"></path><path d="M219.24,421.34a3.08,3.08,0,1,1,3.07-3.08A3.08,3.08,0,0,1,219.24,421.34Zm0-5.65a2.58,2.58,0,1,0,2.57,2.57A2.58,2.58,0,0,0,219.24,415.69Z" style="fill:#37474f"></path><path d="M244.18,420.75a3.08,3.08,0,1,1,3.07-3.08A3.08,3.08,0,0,1,244.18,420.75Zm0-5.65a2.58,2.58,0,1,0,2.57,2.57A2.58,2.58,0,0,0,244.18,415.1Z" style="fill:#37474f"></path><path d="M244.18,456.25a3.08,3.08,0,1,1,3.07-3.07A3.08,3.08,0,0,1,244.18,456.25Zm0-5.65a2.58,2.58,0,1,0,2.57,2.58A2.59,2.59,0,0,0,244.18,450.6Z" style="fill:#37474f"></path><path d="M264.68,440.24a3.08,3.08,0,1,1,3.07-3.08A3.08,3.08,0,0,1,264.68,440.24Zm0-5.65a2.58,2.58,0,1,0,2.57,2.57A2.58,2.58,0,0,0,264.68,434.59Z" style="fill:#37474f"></path><path d="M233.26,448.59a3.08,3.08,0,1,1,3.08-3.08A3.07,3.07,0,0,1,233.26,448.59Zm0-5.65a2.58,2.58,0,1,0,2.58,2.57A2.57,2.57,0,0,0,233.26,442.94Z" style="fill:#37474f"></path><path d="M266.46,420.75a3.08,3.08,0,1,1,3.08-3.08A3.08,3.08,0,0,1,266.46,420.75Zm0-5.65a2.58,2.58,0,1,0,2.58,2.57A2.58,2.58,0,0,0,266.46,415.1Z" style="fill:#37474f"></path><path d="M243.85,439.8a3.08,3.08,0,1,1,3.07-3.08A3.08,3.08,0,0,1,243.85,439.8Zm0-5.65a2.58,2.58,0,1,0,2.57,2.57A2.58,2.58,0,0,0,243.85,434.15Z" style="fill:#37474f"></path><path d="M222.41,440.24a3.08,3.08,0,1,1,3.08-3.08A3.08,3.08,0,0,1,222.41,440.24Zm0-5.65a2.58,2.58,0,1,0,2.58,2.57A2.57,2.57,0,0,0,222.41,434.59Z" style="fill:#37474f"></path><path d="M255.47,430.78a3.08,3.08,0,1,1,3.08-3.08A3.08,3.08,0,0,1,255.47,430.78Zm0-5.65a2.58,2.58,0,1,0,2.58,2.57A2.57,2.57,0,0,0,255.47,425.13Z" style="fill:#37474f"></path><path d="M254.7,449.05a3.08,3.08,0,1,1,3.07-3.07A3.08,3.08,0,0,1,254.7,449.05Zm0-5.65a2.58,2.58,0,1,0,2.57,2.58A2.59,2.59,0,0,0,254.7,443.4Z" style="fill:#37474f"></path><path d="M231.93,430.78A3.08,3.08,0,1,1,235,427.7,3.08,3.08,0,0,1,231.93,430.78Zm0-5.65a2.58,2.58,0,1,0,2.58,2.57A2.57,2.57,0,0,0,231.93,425.13Z" style="fill:#37474f"></path></g><g id="freepik--speech-bubbles--inject-47"><path d="M328.28,116.69a32.25,32.25,0,0,1-53.9,20.41l-16.14,2.37,8.08-14a32.26,32.26,0,1,1,62-8.83Z" style="fill:#fff"></path><path d="M328.28,116.69a32.5,32.5,0,0,1-6.51,16.36,29.32,29.32,0,0,1-6.33,6.25,32.05,32.05,0,0,1-7.78,4.33A32.41,32.41,0,0,1,299,145.7a31.89,31.89,0,0,1-4.48.09,29,29,0,0,1-4.46-.47,32.49,32.49,0,0,1-16-7.88l.38.12L258.32,140l-1.17.18.6-1,8-14,0,.55a32.58,32.58,0,1,1,62.54-9.06Zm0,0A31.92,31.92,0,0,0,291.7,81.78,31.81,31.81,0,0,0,278.37,87a33.39,33.39,0,0,0-9.65,10.53,31.75,31.75,0,0,0-1.82,27.71l.11.29-.15.26-8.13,13.92-.57-.85,16.15-2.26.23,0,.15.15a31.78,31.78,0,0,0,15.45,8,28.16,28.16,0,0,0,4.38.53,32.45,32.45,0,0,0,4.41,0,31.46,31.46,0,0,0,8.62-1.9,30,30,0,0,0,7.78-4.19,28.45,28.45,0,0,0,6.34-6.18A32.31,32.31,0,0,0,328.28,116.69Z" style="fill:#263238"></path><path d="M317.64,106.16a7.54,7.54,0,0,0-.33-5.15c-1.06-2.27-3.34-3.22-5.67-3.7a35.94,35.94,0,0,0-8.08-.7A37.29,37.29,0,0,0,288,100.39a25.62,25.62,0,0,0-6.36,4.25l-.2.2c-.53.35-1,.71-1.54,1.09A20.25,20.25,0,0,0,275,111a16.33,16.33,0,0,0-1,1.89,12.13,12.13,0,0,0-1.16,3,6.49,6.49,0,0,0,2,6.43,11.17,11.17,0,0,0,7,2.44,42,42,0,0,0,6.53-.3c1.25-.07,2.5-.21,3.7-.38q1.19-.16,2.37-.36a36.64,36.64,0,0,0,2.81,9.23c0,.08.15,0,.12,0a32.37,32.37,0,0,1-2.56-9.27,44.47,44.47,0,0,0,11.66-3.44,23.28,23.28,0,0,0,6.09-4.1c1.53-1.44,3.07-3.48,3-5.69a9.94,9.94,0,0,0,1.71-2.71A6.52,6.52,0,0,0,317.64,106.16Zm-28.75,17.27c-3.49.25-7.57,0-10.77-1.71a33.13,33.13,0,0,0,6.79,1,37.09,37.09,0,0,0,7.66-.48c.28,0,.57,0,.84,0s.61-.07.91-.12c0,.16,0,.33,0,.49-1.35.3-2.72.55-4.08.74C289.8,123.35,289.35,123.4,288.89,123.43ZM301.94,100a19.91,19.91,0,0,1,6.73,1.56c1.88.87,3.67,2.38,3.66,4.62a2.66,2.66,0,0,1,0,.28,9.53,9.53,0,0,0-2.21-.59l-.61-.07a11.87,11.87,0,0,0-2.76-1.13,10.41,10.41,0,0,0-4.89-3.35,17.23,17.23,0,0,0-5.4-.9c.7-.16,1.41-.31,2.12-.45A25.57,25.57,0,0,1,301.94,100Zm9.7,11.58a3.88,3.88,0,0,0-.63-.65c.24-.26.46-.54.68-.83A4.89,4.89,0,0,1,311.64,111.55Zm-14.71,10c1.16-.23,2.32-.48,3.47-.77a47.77,47.77,0,0,1-5.63,1.65c0-.16,0-.31,0-.47C295.5,121.87,296.22,121.72,296.93,121.58Zm-1.44-3.26a.54.54,0,0,1,.05-.11.34.34,0,0,0,.4.11,73,73,0,0,0,7.74-2.69,23.38,23.38,0,0,0,6.56-4,2.55,2.55,0,0,1,.84,1.17c-.55.35-1.12.68-1.68,1a50,50,0,0,1-14.09,5.07C295.37,118.71,295.42,118.51,295.49,118.32Zm.35-.83a9.16,9.16,0,0,1,3.92-4.11,23.51,23.51,0,0,1,6.7-2.24,5.5,5.5,0,0,1,3,.08c-.22.19-.45.37-.67.53C305,114.63,300.35,116.1,295.84,117.49Zm.86,2.08a52.06,52.06,0,0,0,8.08-2.5,42.62,42.62,0,0,1-7.29,3c-.49.15-1,.28-1.48.42s-.71.15-1.07.21h0q.06-.42.15-.84Q295.88,119.75,296.7,119.57Zm-2.33,1.27a11.52,11.52,0,0,1-2.34.22,4.67,4.67,0,0,1-2.08-.45c1.51-.14,3-.33,4.51-.6C294.42,120.29,294.39,120.56,294.37,120.84Zm15.54-5.8-.24.29c-.13.15-.27.29-.41.43l-.89.57a23.41,23.41,0,0,1-3.06,1.6l-.37.14A44.83,44.83,0,0,0,309.91,115Zm.38-4.61-.09-.05a6.29,6.29,0,0,0-4-.17,24,24,0,0,0-7,2.55,9.65,9.65,0,0,0-4.31,5.41c-.09.29-.17.57-.24.86a47.87,47.87,0,0,1-5.61.76,2.87,2.87,0,0,1-.29-2.1,7.53,7.53,0,0,1,1.5-3,34.19,34.19,0,0,0,13-4.53,30.3,30.3,0,0,0,3.12-2.15,2.81,2.81,0,0,0,1-1.31,12.44,12.44,0,0,1,2.2,0A5.06,5.06,0,0,1,311.4,109,10,10,0,0,1,310.29,110.43Zm-30.38-2.29L280,108a36.6,36.6,0,0,1,10.7-5.9l.28-.1c3.73-.82,7.89-1,11.41.59a9.68,9.68,0,0,1,2.52,1.57l.17.15a23.36,23.36,0,0,0-6.3-.36,24.82,24.82,0,0,0-12.89,4.85,17.09,17.09,0,0,0-4.75,5,3.16,3.16,0,0,1-1.31-.61C278.42,111.92,279.12,109.54,279.91,108.14Zm26.47-2.31a28.23,28.23,0,0,0-4.45,1c-4.54,1.31-9.22,3.27-12.3,7l-.08.1c-.92.1-1.84.18-2.76.21a33.84,33.84,0,0,1-3.63-.08l-1.1-.09a11.68,11.68,0,0,1,1.23-1.64,22.22,22.22,0,0,1,5-4.14,24.06,24.06,0,0,1,12.21-3.53,21.15,21.15,0,0,1,5.6.67A2.43,2.43,0,0,1,306.38,105.83Zm-.14,1a6.29,6.29,0,0,1-1.26,1c-.51.37-1,.73-1.56,1.07a33.48,33.48,0,0,1-3,1.72,33.08,33.08,0,0,1-9.19,3,17.76,17.76,0,0,1,1.37-1.26,22.25,22.25,0,0,1,5.79-3.33,36.35,36.35,0,0,1,6.69-2Zm-24.62,7.92a27.77,27.77,0,0,0,7.17.13h0c-1,1.49-1.71,3.32-1,5l-.75,0c-1.71,0-3.9-.1-5.12-1.47A3.25,3.25,0,0,1,281.62,114.76Zm29.82-7.31c-.11-.13-.23-.26-.35-.38a7.93,7.93,0,0,1,1,.37c-.07.23-.15.46-.24.68A5.51,5.51,0,0,0,311.44,107.45Zm-35.79,12.42a5.65,5.65,0,0,1-1.52-2.66,5.05,5.05,0,0,1,.6-3.46,17,17,0,0,1,3.7-4.43,7.75,7.75,0,0,0-.22,1,4.4,4.4,0,0,0,.37,2.7,3.37,3.37,0,0,0,2.19,1.58,4.78,4.78,0,0,0-.34,2.74,3.89,3.89,0,0,0,1.71,2.42c1.76,1.15,4.08,1.11,6.09,1h.08a3.42,3.42,0,0,0,1.15.93,35.53,35.53,0,0,1-5.36.06,31.76,31.76,0,0,1-6.63-1.16,10.46,10.46,0,0,1-1.69-.56Zm36.74-7.94a5.84,5.84,0,0,0-.09-2.79,8,8,0,0,0,.59-1.3,3.36,3.36,0,0,1,1.57,2.11,22.32,22.32,0,0,1-1.69,1.68ZM315.2,109a4.69,4.69,0,0,0-2.08-2.19,5,5,0,0,0,0-1.45c-.34-2.25-2.2-3.77-4.17-4.65a19.73,19.73,0,0,0-5.53-1.52l.4,0a21.44,21.44,0,0,1,7.58.15,7.38,7.38,0,0,1,4.89,3.74,5.09,5.09,0,0,1,.15,3.81A10.26,10.26,0,0,1,315.2,109Zm-24.11-9a36.72,36.72,0,0,1,14.59-2.49A26.89,26.89,0,0,1,313,98.59a5.83,5.83,0,0,1,2.86,1.82,5.22,5.22,0,0,1,.7,1.24c-.1-.14-.19-.29-.3-.42-3.41-4.15-9.48-3.46-14.22-2.84-1.39.19-2.79.42-4.19.7a34.48,34.48,0,0,0-3.86.54,35.43,35.43,0,0,0-6.46,2A34,34,0,0,1,291.09,100Zm-16.6,20.58a5.45,5.45,0,0,1-.33-.56c0,.06.09.12.14.17a4.57,4.57,0,0,0,.95.62,10.77,10.77,0,0,0,1.71,1.33,14.83,14.83,0,0,0,3.78,1.62l-.42,0A8.31,8.31,0,0,1,274.49,120.58Zm34.28-2.78a26.29,26.29,0,0,1-3.72,1.94c.54-.28,1.07-.56,1.59-.88s.85-.55,1.26-.84a16.29,16.29,0,0,0,3.18-2.21,3.35,3.35,0,0,0,1.22-2.58l0,0,.13-.11a20.25,20.25,0,0,0,1.93-1.53,6.22,6.22,0,0,1-.72,1.65A15.12,15.12,0,0,1,308.77,117.8Z" style="fill:#263238"></path><path d="M456.45,232.7a32.26,32.26,0,0,1-28.68,50l-11,12.08-2.62-15.91a31.9,31.9,0,0,1-11.57-10.6,32.26,32.26,0,1,1,53.84-35.56Z" style="fill:#B0BEC5"></path><path d="M456.45,232.7a32.57,32.57,0,0,1,5.36,16.77,37,37,0,0,1-.13,4.46,34.4,34.4,0,0,1-.8,4.38,31.67,31.67,0,0,1-3.26,8.29,32.18,32.18,0,0,1-5.39,7.12,31.55,31.55,0,0,1-3.41,2.91,27.65,27.65,0,0,1-3.75,2.48,32.57,32.57,0,0,1-17.33,4l.37-.15-10.88,12.15-.79.88-.2-1.17L413.56,279l.32.45a32.63,32.63,0,0,1-16.72-23.47,33.06,33.06,0,0,1,1-14.73,32.82,32.82,0,0,1,19.48-21,33,33,0,0,1,14.45-2A32.45,32.45,0,0,1,456.45,232.7Zm0,0A31.91,31.91,0,0,0,406,229a31.59,31.59,0,0,0-6.95,12.52,33.25,33.25,0,0,0-.78,14.27,31.86,31.86,0,0,0,16.19,22.56l.27.15.05.3,2.57,15.91-1-.29,11-12,.16-.17.21,0a31.8,31.8,0,0,0,17-3.67,27.17,27.17,0,0,0,3.72-2.36,33.92,33.92,0,0,0,3.41-2.81,32.18,32.18,0,0,0,5.45-6.94,30.45,30.45,0,0,0,3.35-8.18,35.63,35.63,0,0,0,.82-4.36,34.68,34.68,0,0,0,.15-4.44A32.36,32.36,0,0,0,456.45,232.7Z" style="fill:#B0BEC5"></path><polygon points="435.69 251.75 447.37 263.42 441.81 268.99 430.13 257.31 418.45 268.99 412.89 263.42 424.57 251.75 412.89 240.07 418.45 234.51 430.13 246.19 441.81 234.51 447.37 240.07 435.69 251.75" style="fill:#fff"></polygon></g></svg>
